# xmcd CD database file
#
# Track frame offsets:
#	150
#	12275
#	24660
#	38825
#	53041
#	68966
#	82973
#	101523
#	118943
#	137847
#	152437
#	167369
#	181209
#	192251
#
# Disc length: 2713 seconds
#
# Revision: 0
# Processed by: cddbd v1.4b42PL1 Copyright (c) Steve Scherf et al.
# Submitted via: Feurio! 1.62 - http://www.feurio.com
#
DISCID=ad0a970e
DTITLE=Various Artist - Country Hits CD 3/3
DYEAR=1900
DGENRE=country
TTITLE0=Willie Nelson - Crazy
TTITLE1=Jonny Cash - I walk a line
TTITLE2=Dolly Parton - I will always love you
TTITLE3=Justin Tubbs - Lonesome 77203
TTITLE4=Browne/Frey - Take it easy
TTITLE5=D.Bellamy - If I said you have a beautiful body
TTITLE6=Twain/Lange - Any man of mine
TTITLE7=Garver/Sanderson/Yates/Brooks - Red Strokes
TTITLE8=B.,R.&M. Gibb - Islands in The Stream
TTITLE9=T.Astor/Löhmer/Kermit - Devil
TTITLE10=Travis - Sixteen Tons
TTITLE11=W. Nelson - Home is where you Happy
TTITLE12=R. Miller - King of the Road
TTITLE13=James - Jenny Lou
EXTD=Magic
EXTT0=
EXTT1=
EXTT2=
EXTT3=
EXTT4=
EXTT5=
EXTT6=
EXTT7=
EXTT8=
EXTT9=
EXTT10=
EXTT11=
EXTT12=
EXTT13=
PLAYORDER=
